<svg width="26" height="26" viewBox="0 0 26 26" fill="none" xmlns="http://www.w3.org/2000/svg">
<path d="M22.4298 4.82942H19.2648V3.77225C19.2648 3.49188 19.1536 3.22298 18.9558 3.02472C18.7579 2.82647 18.4896 2.71509 18.2098 2.71509H7.65977C7.37996 2.71509 7.11162 2.82647 6.91377 3.02472C6.71592 3.22298 6.60477 3.49188 6.60477 3.77225V4.82942H3.43977C3.15996 4.82942 2.89162 4.9408 2.69377 5.13906C2.49592 5.33731 2.38477 5.60621 2.38477 5.88659V9.05808C2.38477 10.1796 2.82937 11.2552 3.62078 12.0482C4.41218 12.8412 5.48555 13.2867 6.60477 13.2867H8.22947C9.18375 14.3536 10.4704 15.0653 11.8798 15.3059V17.5154H10.8248C9.98536 17.5154 9.18033 17.8495 8.58677 18.4443C7.99322 19.0391 7.65977 19.8458 7.65977 20.6869V22.8012C7.65977 23.0816 7.77092 23.3505 7.96877 23.5488C8.16662 23.747 8.43496 23.8584 8.71477 23.8584H17.1548C17.4346 23.8584 17.7029 23.747 17.9008 23.5488C18.0986 23.3505 18.2098 23.0816 18.2098 22.8012V20.6869C18.2098 19.8458 17.8763 19.0391 17.2828 18.4443C16.6892 17.8495 15.8842 17.5154 15.0448 17.5154H13.9898V15.3059C15.3992 15.0653 16.6858 14.3536 17.6401 13.2867H19.2648C20.384 13.2867 21.4574 12.8412 22.2488 12.0482C23.0402 11.2552 23.4848 10.1796 23.4848 9.05808V5.88659C23.4848 5.60621 23.3736 5.33731 23.1758 5.13906C22.9779 4.9408 22.7096 4.82942 22.4298 4.82942ZM6.60477 11.1724C6.04516 11.1724 5.50847 10.9497 5.11277 10.5531C4.71707 10.1566 4.49477 9.61884 4.49477 9.05808V6.94375H6.60477V9.05808C6.60709 9.77876 6.73196 10.4938 6.97402 11.1724H6.60477ZM15.0448 19.6297C15.3246 19.6297 15.5929 19.7411 15.7908 19.9394C15.9886 20.1376 16.0998 20.4065 16.0998 20.6869V21.7441H9.76977V20.6869C9.76977 20.4065 9.88092 20.1376 10.0788 19.9394C10.2766 19.7411 10.545 19.6297 10.8248 19.6297H15.0448ZM17.1548 9.05808C17.1548 10.1796 16.7102 11.2552 15.9188 12.0482C15.1274 12.8412 14.054 13.2867 12.9348 13.2867C11.8156 13.2867 10.7422 12.8412 9.95078 12.0482C9.15937 11.2552 8.71477 10.1796 8.71477 9.05808V4.82942H17.1548V9.05808ZM21.3748 9.05808C21.3748 9.61884 21.1525 10.1566 20.7568 10.5531C20.3611 10.9497 19.8244 11.1724 19.2648 11.1724H18.8955C19.1376 10.4938 19.2624 9.77876 19.2648 9.05808V6.94375H21.3748V9.05808Z" fill="#E8E8ED"/>
</svg>
