<svg width="18" height="18" viewBox="0 0 18 18" fill="none" xmlns="http://www.w3.org/2000/svg">
<path d="M15 4.20008C15 3.78004 14.9997 3.56986 14.9179 3.40942C14.8461 3.2683 14.7317 3.15365 14.5906 3.08174C14.4302 3 14.2198 3 13.7997 3H4.19971C3.77967 3 3.56986 3 3.40942 3.08174C3.2683 3.15365 3.15365 3.2683 3.08174 3.40942C3 3.56986 3 3.78004 3 4.20008V4.75302C3 4.93646 3 5.02825 3.02072 5.11456C3.0391 5.19109 3.06947 5.2642 3.11059 5.3313C3.15696 5.40696 3.22193 5.47193 3.35156 5.60156L7.14862 9.39862C7.27832 9.5283 7.34283 9.5928 7.38921 9.66855C7.43033 9.7356 7.46112 9.80895 7.47949 9.88553C7.5 9.97095 7.5 10.0616 7.5 10.2414V13.8082C7.5 14.4511 7.5 14.7728 7.63537 14.9664C7.75365 15.1355 7.93605 15.2483 8.14012 15.2784C8.37382 15.3129 8.66152 15.1693 9.23655 14.8818L9.83655 14.5818C10.0774 14.4614 10.1974 14.401 10.2854 14.3111C10.3632 14.2317 10.4227 14.1364 10.459 14.0313C10.5 13.9124 10.5 13.7775 10.5 13.5082V10.2469C10.5 10.0635 10.5 9.97185 10.5207 9.88553C10.5391 9.80895 10.5694 9.7356 10.6106 9.66855C10.6567 9.59333 10.721 9.52898 10.849 9.40103L10.8516 9.39862L14.6486 5.60156C14.7783 5.47185 14.8428 5.40699 14.8892 5.3313C14.9303 5.2642 14.9611 5.19109 14.9795 5.11456C15 5.02913 15 4.93833 15 4.7586V4.20008Z" stroke="#E8E8ED" stroke-width="1.5" stroke-linecap="round" stroke-linejoin="round"/>
</svg>
