<svg width="33" height="32" viewBox="0 0 33 32" fill="none" xmlns="http://www.w3.org/2000/svg">
<path d="M27.6668 10.6667L19.6668 3.65334C18.9334 2.9974 17.984 2.63477 17.0001 2.63477C16.0162 2.63477 15.0668 2.9974 14.3335 3.65334L6.33346 10.6667C5.90995 11.0454 5.57199 11.5101 5.34209 12.0297C5.11218 12.5493 4.99561 13.1118 5.00013 13.68V25.3333C5.00013 26.3942 5.42155 27.4116 6.1717 28.1618C6.92184 28.9119 7.93926 29.3333 9.00013 29.3333H25.0001C26.061 29.3333 27.0784 28.9119 27.8286 28.1618C28.5787 27.4116 29.0001 26.3942 29.0001 25.3333V13.6667C29.0028 13.1008 28.8853 12.5407 28.6554 12.0236C28.4256 11.5064 28.0886 11.0439 27.6668 10.6667ZM19.6668 26.6667H14.3335V20C14.3335 19.6464 14.4739 19.3072 14.724 19.0572C14.974 18.8071 15.3132 18.6667 15.6668 18.6667H18.3335C18.6871 18.6667 19.0262 18.8071 19.2763 19.0572C19.5263 19.3072 19.6668 19.6464 19.6668 20V26.6667ZM26.3335 25.3333C26.3335 25.687 26.193 26.0261 25.9429 26.2761C25.6929 26.5262 25.3537 26.6667 25.0001 26.6667H22.3335V20C22.3335 18.9391 21.912 17.9217 21.1619 17.1716C20.4117 16.4214 19.3943 16 18.3335 16H15.6668C14.6059 16 13.5885 16.4214 12.8384 17.1716C12.0882 17.9217 11.6668 18.9391 11.6668 20V26.6667H9.00013C8.6465 26.6667 8.30737 26.5262 8.05732 26.2761C7.80727 26.0261 7.66679 25.687 7.66679 25.3333V13.6667C7.66703 13.4774 7.70758 13.2903 7.78575 13.1178C7.86391 12.9454 7.9779 12.7916 8.12013 12.6667L16.1201 5.66667C16.3634 5.45292 16.6762 5.33503 17.0001 5.33503C17.324 5.33503 17.6368 5.45292 17.8801 5.66667L25.8801 12.6667C26.0224 12.7916 26.1363 12.9454 26.2145 13.1178C26.2927 13.2903 26.3332 13.4774 26.3335 13.6667V25.3333Z" fill="#E8E8ED"/>
</svg>
