<svg width="24" height="24" viewBox="0 0 24 24" fill="none" xmlns="http://www.w3.org/2000/svg">
<g clip-path="url(#clip0_849_2900)">
<path d="M6.2 20.75C5.44422 20.7762 4.70897 20.5012 4.15581 19.9856C3.60265 19.4699 3.27685 18.7557 3.25 18L3.25 5.99997C3.27711 5.24431 3.60299 4.53029 4.15609 4.01468C4.70919 3.49908 5.44429 3.22405 6.2 3.24997H15C15.1989 3.24997 15.3897 3.32899 15.5303 3.46964C15.671 3.61029 15.75 3.80106 15.75 3.99997C15.75 4.19888 15.671 4.38965 15.5303 4.5303C15.3897 4.67095 15.1989 4.74997 15 4.74997H6.2C5.84247 4.72567 5.48976 4.84326 5.21834 5.07724C4.94691 5.31123 4.77864 5.64276 4.75 5.99997V18C4.7789 18.3571 4.94724 18.6885 5.2186 18.9224C5.48997 19.1563 5.84253 19.274 6.2 19.25H15C15.1989 19.25 15.3897 19.329 15.5303 19.4696C15.671 19.6103 15.75 19.8011 15.75 20C15.75 20.1989 15.671 20.3896 15.5303 20.5303C15.3897 20.671 15.1989 20.75 15 20.75H6.2ZM15.469 16.531C15.3285 16.3902 15.2496 16.1994 15.2496 16.0005C15.2496 15.8016 15.3285 15.6108 15.469 15.47L18.189 12.75H9C8.80109 12.75 8.61032 12.671 8.46967 12.5303C8.32902 12.3896 8.25 12.1989 8.25 12C8.25 11.8011 8.32902 11.6103 8.46967 11.4696C8.61032 11.329 8.80109 11.25 9 11.25H18.19L15.469 8.52997C15.3974 8.46075 15.3403 8.37797 15.301 8.28644C15.2618 8.19492 15.2411 8.0965 15.2403 7.99691C15.2395 7.89733 15.2585 7.79858 15.2963 7.70643C15.334 7.61427 15.3898 7.53056 15.4602 7.46017C15.5307 7.38979 15.6144 7.33414 15.7066 7.29647C15.7988 7.2588 15.8976 7.23987 15.9972 7.24078C16.0967 7.2417 16.1951 7.26243 16.2866 7.30178C16.3781 7.34113 16.4608 7.39831 16.53 7.46997L20.53 11.47C20.5997 11.5395 20.6549 11.6222 20.6926 11.7131C20.7303 11.804 20.7498 11.9015 20.7498 12C20.7498 12.0984 20.7303 12.1959 20.6926 12.2868C20.6549 12.3778 20.5997 12.4604 20.53 12.53L16.53 16.53C16.3892 16.6705 16.1984 16.7494 15.9995 16.7494C15.8006 16.7494 15.6098 16.6705 15.469 16.53V16.531Z" fill="#E8E8ED"/>
</g>
<defs>
<clipPath id="clip0_849_2900">
<rect width="24" height="24" fill="white"/>
</clipPath>
</defs>
</svg>
