<svg width="36" height="36" viewBox="0 0 36 36" fill="none" xmlns="http://www.w3.org/2000/svg">
<path d="M24.5 15H23.75V12.138C23.75 8.69625 21.26 6 17.7222 6C14.1702 6 11.75 8.75325 11.75 12.138V15H11C9.3455 15 8 16.3455 8 18V27C8 28.6545 9.3455 30 11 30H24.5C26.1545 30 27.5 28.6545 27.5 27V18C27.5 16.3455 26.1545 15 24.5 15ZM13.25 12.138C13.25 9.58125 14.9975 7.5 17.7222 7.5C20.4193 7.5 22.25 9.537 22.25 12.138V15H13.25V12.138ZM26 27C26 27.8265 25.3265 28.5 24.5 28.5H11C10.1727 28.5 9.5 27.8265 9.5 27V18C9.5 17.1735 10.1727 16.5 11 16.5H24.5C25.3265 16.5 26 17.1735 26 18V27ZM17.75 19.5C16.922 19.5 16.25 20.1713 16.25 21C16.25 21.5535 16.5538 22.032 17 22.2922V24.75C17 25.164 17.336 25.5 17.75 25.5C18.164 25.5 18.5 25.164 18.5 24.75V22.2922C18.9462 22.0327 19.25 21.5535 19.25 21C19.25 20.1713 18.5787 19.5 17.75 19.5Z" fill="#E8E8ED"/>
</svg>
