<svg width="21" height="16" viewBox="0 0 21 16" fill="none" xmlns="http://www.w3.org/2000/svg">
<path fill-rule="evenodd" clip-rule="evenodd" d="M19.6875 13.125C19.6875 13.2582 19.6619 13.3842 19.6252 13.5043L13.7812 7.21875L19.6875 2.625V13.125ZM2.33362 14.4021L8.25562 8.09155L10.5 9.78797L12.6473 8.08106L18.6664 14.4021C18.5725 14.4237 2.42747 14.4237 2.33362 14.4021ZM1.3125 13.125V2.625L7.21875 7.21875L1.37484 13.5043C1.33809 13.3842 1.3125 13.2582 1.3125 13.125ZM19.0312 1.3125L10.5 7.875L1.96875 1.3125H19.0312ZM18.375 0H2.625C1.17534 0 0 1.17534 0 2.625V13.125C0 14.5747 1.17534 15.75 2.625 15.75H18.375C19.8247 15.75 21 14.5747 21 13.125V2.625C21 1.17534 19.8247 0 18.375 0Z" fill="#E8E8ED"/>
</svg>
