<svg width="18" height="18" viewBox="0 0 18 18" fill="none" xmlns="http://www.w3.org/2000/svg">
<path d="M12.0514 11.25H5.94847C5.49411 11.25 5.26692 11.25 5.16173 11.3398C5.07045 11.4178 5.02201 11.5348 5.03143 11.6545C5.04228 11.7924 5.20293 11.953 5.5242 12.2743L8.57565 15.3258C8.72422 15.4743 8.79847 15.5485 8.88405 15.5764C8.95935 15.6008 9.0405 15.6008 9.1158 15.5764C9.20145 15.5485 9.2757 15.4743 9.4242 15.3258L12.4756 12.2743C12.7969 11.953 12.9576 11.7924 12.9685 11.6545C12.9778 11.5348 12.9294 11.4178 12.8381 11.3398C12.733 11.25 12.5058 11.25 12.0514 11.25Z" stroke="#E8E8ED" stroke-width="1.5" stroke-linecap="round" stroke-linejoin="round"/>
<path d="M5.94847 6.75003H12.0514C12.5058 6.75003 12.733 6.75003 12.8381 6.66018C12.9295 6.58222 12.9778 6.46528 12.9685 6.34561C12.9576 6.20769 12.7969 6.04705 12.4756 5.72577L9.4242 2.67429C9.2757 2.52579 9.20145 2.45154 9.1158 2.42372C9.0405 2.39925 8.95935 2.39925 8.88405 2.42372C8.79847 2.45154 8.72422 2.52579 8.57565 2.67429L5.5242 5.72577C5.20293 6.04704 5.04228 6.20769 5.03143 6.34561C5.02201 6.46528 5.07045 6.58222 5.16173 6.66018C5.26692 6.75003 5.49411 6.75003 5.94847 6.75003Z" stroke="#E8E8ED" stroke-width="1.5" stroke-linecap="round" stroke-linejoin="round"/>
</svg>
