<svg width="24" height="24" viewBox="0 0 24 24" fill="none" xmlns="http://www.w3.org/2000/svg">
<path d="M11.9156 18.7419C12.1124 18.7419 12.3048 18.6834 12.4684 18.5739C12.632 18.4643 12.7596 18.3086 12.8349 18.1264C12.9102 17.9442 12.9299 17.7437 12.8915 17.5503C12.8531 17.3569 12.7583 17.1792 12.6192 17.0398C12.48 16.9003 12.3027 16.8054 12.1097 16.7669C11.9167 16.7284 11.7166 16.7482 11.5348 16.8237C11.353 16.8991 11.1976 17.0269 11.0882 17.1909C10.9789 17.3549 10.9206 17.5476 10.9206 17.7448C10.9206 18.0093 11.0254 18.2629 11.212 18.4499C11.3986 18.6368 11.6517 18.7419 11.9156 18.7419ZM16.8907 18.7419C17.0875 18.7419 17.2799 18.6834 17.4435 18.5739C17.6071 18.4643 17.7347 18.3086 17.81 18.1264C17.8853 17.9442 17.905 17.7437 17.8666 17.5503C17.8282 17.3569 17.7335 17.1792 17.5943 17.0398C17.4551 16.9003 17.2778 16.8054 17.0848 16.7669C16.8918 16.7284 16.6917 16.7482 16.5099 16.8237C16.3281 16.8991 16.1727 17.0269 16.0634 17.1909C15.954 17.3549 15.8957 17.5476 15.8957 17.7448C15.8957 18.0093 16.0005 18.2629 16.1871 18.4499C16.3737 18.6368 16.6268 18.7419 16.8907 18.7419ZM16.8907 14.7536C17.0875 14.7536 17.2799 14.6951 17.4435 14.5856C17.6071 14.476 17.7347 14.3203 17.81 14.1381C17.8853 13.9559 17.905 13.7554 17.8666 13.562C17.8282 13.3686 17.7335 13.191 17.5943 13.0515C17.4551 12.9121 17.2778 12.8171 17.0848 12.7786C16.8918 12.7402 16.6917 12.7599 16.5099 12.8354C16.3281 12.9108 16.1727 13.0386 16.0634 13.2026C15.954 13.3666 15.8957 13.5594 15.8957 13.7566C15.8957 14.021 16.0005 14.2746 16.1871 14.4616C16.3737 14.6486 16.6268 14.7536 16.8907 14.7536ZM11.9156 14.7536C12.1124 14.7536 12.3048 14.6951 12.4684 14.5856C12.632 14.476 12.7596 14.3203 12.8349 14.1381C12.9102 13.9559 12.9299 13.7554 12.8915 13.562C12.8531 13.3686 12.7583 13.191 12.6192 13.0515C12.48 12.9121 12.3027 12.8171 12.1097 12.7786C11.9167 12.7402 11.7166 12.7599 11.5348 12.8354C11.353 12.9108 11.1976 13.0386 11.0882 13.2026C10.9789 13.3666 10.9206 13.5594 10.9206 13.7566C10.9206 14.021 11.0254 14.2746 11.212 14.4616C11.3986 14.6486 11.6517 14.7536 11.9156 14.7536ZM18.8808 2.78881H17.8857V1.79175C17.8857 1.52731 17.7809 1.2737 17.5943 1.08671C17.4077 0.899726 17.1546 0.794678 16.8907 0.794678C16.6268 0.794678 16.3737 0.899726 16.1871 1.08671C16.0005 1.2737 15.8957 1.52731 15.8957 1.79175V2.78881H7.93548V1.79175C7.93548 1.52731 7.83065 1.2737 7.64404 1.08671C7.45744 0.899726 7.20435 0.794678 6.94046 0.794678C6.67656 0.794678 6.42347 0.899726 6.23687 1.08671C6.05026 1.2737 5.94543 1.52731 5.94543 1.79175V2.78881H4.95041C4.15872 2.78881 3.39945 3.10396 2.83964 3.66492C2.27983 4.22587 1.96533 4.9867 1.96533 5.78001V19.739C1.96533 20.5323 2.27983 21.2931 2.83964 21.8541C3.39945 22.415 4.15872 22.7302 4.95041 22.7302H18.8808C19.6724 22.7302 20.4317 22.415 20.9915 21.8541C21.5513 21.2931 21.8658 20.5323 21.8658 19.739V5.78001C21.8658 4.9867 21.5513 4.22587 20.9915 3.66492C20.4317 3.10396 19.6724 2.78881 18.8808 2.78881ZM19.8758 19.739C19.8758 20.0034 19.7709 20.257 19.5843 20.444C19.3977 20.631 19.1447 20.736 18.8808 20.736H4.95041C4.68651 20.736 4.43342 20.631 4.24682 20.444C4.06021 20.257 3.95538 20.0034 3.95538 19.739V10.7654H19.8758V19.739ZM19.8758 8.77122H3.95538V5.78001C3.95538 5.51558 4.06021 5.26197 4.24682 5.07498C4.43342 4.888 4.68651 4.78295 4.95041 4.78295H5.94543V5.78001C5.94543 6.04445 6.05026 6.29806 6.23687 6.48505C6.42347 6.67203 6.67656 6.77708 6.94046 6.77708C7.20435 6.77708 7.45744 6.67203 7.64404 6.48505C7.83065 6.29806 7.93548 6.04445 7.93548 5.78001V4.78295H15.8957V5.78001C15.8957 6.04445 16.0005 6.29806 16.1871 6.48505C16.3737 6.67203 16.6268 6.77708 16.8907 6.77708C17.1546 6.77708 17.4077 6.67203 17.5943 6.48505C17.7809 6.29806 17.8857 6.04445 17.8857 5.78001V4.78295H18.8808C19.1447 4.78295 19.3977 4.888 19.5843 5.07498C19.7709 5.26197 19.8758 5.51558 19.8758 5.78001V8.77122ZM6.94046 14.7536C7.13725 14.7536 7.32963 14.6951 7.49326 14.5856C7.65689 14.476 7.78443 14.3203 7.85974 14.1381C7.93505 13.9559 7.95476 13.7554 7.91636 13.562C7.87797 13.3686 7.7832 13.191 7.64404 13.0515C7.50489 12.9121 7.32759 12.8171 7.13458 12.7786C6.94156 12.7402 6.74149 12.7599 6.55968 12.8354C6.37786 12.9108 6.22246 13.0386 6.11312 13.2026C6.00379 13.3666 5.94543 13.5594 5.94543 13.7566C5.94543 14.021 6.05026 14.2746 6.23687 14.4616C6.42347 14.6486 6.67656 14.7536 6.94046 14.7536ZM6.94046 18.7419C7.13725 18.7419 7.32963 18.6834 7.49326 18.5739C7.65689 18.4643 7.78443 18.3086 7.85974 18.1264C7.93505 17.9442 7.95476 17.7437 7.91636 17.5503C7.87797 17.3569 7.7832 17.1792 7.64404 17.0398C7.50489 16.9003 7.32759 16.8054 7.13458 16.7669C6.94156 16.7284 6.74149 16.7482 6.55968 16.8237C6.37786 16.8991 6.22246 17.0269 6.11312 17.1909C6.00379 17.3549 5.94543 17.5476 5.94543 17.7448C5.94543 18.0093 6.05026 18.2629 6.23687 18.4499C6.42347 18.6368 6.67656 18.7419 6.94046 18.7419Z" fill="#1E1D1F"/>
</svg>
