<svg width="20" height="24" viewBox="0 0 20 24" fill="none" xmlns="http://www.w3.org/2000/svg">
<path d="M16.5 9H15.75V6.138C15.75 2.69625 13.26 0 9.72225 0C6.17025 0 3.75 2.75325 3.75 6.138V9H3C1.3455 9 0 10.3455 0 12V21C0 22.6545 1.3455 24 3 24H16.5C18.1545 24 19.5 22.6545 19.5 21V12C19.5 10.3455 18.1545 9 16.5 9ZM5.25 6.138C5.25 3.58125 6.9975 1.5 9.72225 1.5C12.4193 1.5 14.25 3.537 14.25 6.138V9H5.25V6.138ZM18 21C18 21.8265 17.3265 22.5 16.5 22.5H3C2.17275 22.5 1.5 21.8265 1.5 21V12C1.5 11.1735 2.17275 10.5 3 10.5H16.5C17.3265 10.5 18 11.1735 18 12V21ZM9.75 13.5C8.922 13.5 8.25 14.1713 8.25 15C8.25 15.5535 8.55375 16.032 9 16.2922V18.75C9 19.164 9.336 19.5 9.75 19.5C10.164 19.5 10.5 19.164 10.5 18.75V16.2922C10.9462 16.0327 11.25 15.5535 11.25 15C11.25 14.1713 10.5787 13.5 9.75 13.5Z" fill="#1E1D1F"/>
</svg>
