<svg width="107" height="24" viewBox="0 0 107 24" fill="none" xmlns="http://www.w3.org/2000/svg">
<path d="M0.5 0.727272H8.36364L13.7727 13.9091H14.0455L19.4545 0.727272H27.3182V24H21.1364V10.5455H20.9545L15.7727 23.8182H12.0455L6.86364 10.4545H6.68182V24H0.5V0.727272ZM30.3125 24V0.727272H40.4034C42.1761 0.727272 43.6648 0.965909 44.8693 1.44318C46.0814 1.92045 46.9943 2.5947 47.608 3.46591C48.2292 4.33712 48.5398 5.36364 48.5398 6.54545C48.5398 7.40151 48.3504 8.18182 47.9716 8.88636C47.6004 9.59091 47.0777 10.1818 46.4034 10.6591C45.7292 11.1288 44.9413 11.4545 44.0398 11.6364V11.8636C45.0398 11.9015 45.9489 12.1553 46.767 12.625C47.5852 13.0871 48.2367 13.7273 48.7216 14.5455C49.2064 15.3561 49.4489 16.3106 49.4489 17.4091C49.4489 18.6818 49.1155 19.8144 48.4489 20.8068C47.7898 21.7992 46.8504 22.5795 45.6307 23.1477C44.411 23.7159 42.9564 24 41.267 24H30.3125ZM36.6307 18.9545H39.5852C40.6458 18.9545 41.4413 18.7576 41.9716 18.3636C42.5019 17.9621 42.767 17.3712 42.767 16.5909C42.767 16.0455 42.642 15.5833 42.392 15.2045C42.142 14.8258 41.786 14.5379 41.3239 14.3409C40.8693 14.1439 40.3201 14.0455 39.6761 14.0455H36.6307V18.9545ZM36.6307 10.1364H39.2216C39.7746 10.1364 40.2633 10.0492 40.6875 9.875C41.1117 9.70076 41.4413 9.45076 41.6761 9.125C41.9186 8.79167 42.0398 8.38636 42.0398 7.90909C42.0398 7.18939 41.7822 6.64015 41.267 6.26136C40.7519 5.875 40.1004 5.68182 39.3125 5.68182H36.6307V10.1364ZM51.6875 24V0.727272H61.733C63.4602 0.727272 64.9716 1.04167 66.267 1.67045C67.5625 2.29924 68.5701 3.20455 69.2898 4.38636C70.0095 5.56818 70.3693 6.98485 70.3693 8.63636C70.3693 10.303 69.9981 11.7083 69.2557 12.8523C68.5208 13.9962 67.4867 14.8598 66.1534 15.4432C64.8277 16.0265 63.2784 16.3182 61.5057 16.3182H55.5057V11.4091H60.233C60.9754 11.4091 61.608 11.3182 62.1307 11.1364C62.661 10.947 63.0663 10.6477 63.3466 10.2386C63.6345 9.82955 63.7784 9.29545 63.7784 8.63636C63.7784 7.9697 63.6345 7.42803 63.3466 7.01136C63.0663 6.58712 62.661 6.27651 62.1307 6.07954C61.608 5.875 60.9754 5.77273 60.233 5.77273H58.0057V24H51.6875ZM65.3239 13.3182L71.142 24H64.2784L58.5966 13.3182H65.3239ZM78.9716 24L72.108 0.727272H79.1534L82.3352 15.0455H82.517L86.2898 0.727272H91.8352L95.608 15.0909H95.7898L98.9716 0.727272H106.017L99.1534 24H93.108L89.1534 11H88.9716L85.017 24H78.9716Z" fill="#1E1D1F"/>
</svg>
