<svg width="36" height="36" viewBox="0 0 36 36" fill="none" xmlns="http://www.w3.org/2000/svg">
<path fill-rule="evenodd" clip-rule="evenodd" d="M27.6875 23.125C27.6875 23.2582 27.6619 23.3842 27.6252 23.5043L21.7812 17.2188L27.6875 12.625V23.125ZM10.3336 24.4021L16.2556 18.0916L18.5 19.788L20.6473 18.0811L26.6664 24.4021C26.5725 24.4237 10.4275 24.4237 10.3336 24.4021ZM9.3125 23.125V12.625L15.2188 17.2188L9.37484 23.5043C9.33809 23.3842 9.3125 23.2582 9.3125 23.125ZM27.0312 11.3125L18.5 17.875L9.96875 11.3125H27.0312ZM26.375 10H10.625C9.17534 10 8 11.1753 8 12.625V23.125C8 24.5747 9.17534 25.75 10.625 25.75H26.375C27.8247 25.75 29 24.5747 29 23.125V12.625C29 11.1753 27.8247 10 26.375 10Z" fill="#1E1D1F"/>
</svg>
