<svg width="104" height="28" viewBox="0 0 104 28" fill="none" xmlns="http://www.w3.org/2000/svg">
<path d="M0.789773 27V7.36364H7.48864V11.0966H7.69318C8.10227 9.86932 8.80114 8.89773 9.78977 8.18182C10.7784 7.46591 11.9545 7.10795 13.3182 7.10795C14.6989 7.10795 15.8878 7.47443 16.8849 8.20739C17.8821 8.93182 18.483 9.89489 18.6875 11.0966H18.892C19.2244 9.89489 19.9318 8.93182 21.0142 8.20739C22.0966 7.47443 23.3665 7.10795 24.8239 7.10795C26.7074 7.10795 28.233 7.71307 29.4006 8.9233C30.5767 10.1335 31.1648 11.7443 31.1648 13.7557V27H24.108V15.5455C24.108 14.6847 23.8906 14.0114 23.456 13.5256C23.0213 13.0312 22.4375 12.7841 21.7045 12.7841C20.9801 12.7841 20.4048 13.0312 19.9787 13.5256C19.5611 14.0114 19.3523 14.6847 19.3523 15.5455V27H12.6023V15.5455C12.6023 14.6847 12.3849 14.0114 11.9503 13.5256C11.5156 13.0312 10.9318 12.7841 10.1989 12.7841C9.71307 12.7841 9.29545 12.8949 8.94602 13.1165C8.59659 13.3381 8.32386 13.6577 8.12784 14.0753C7.94034 14.4844 7.84659 14.9744 7.84659 15.5455V27H0.789773ZM34.543 27V0.818181H41.5998V10.7898H41.7021C41.9577 10.125 42.3327 9.51562 42.8271 8.96165C43.3214 8.39915 43.935 7.9517 44.668 7.61932C45.4009 7.27841 46.2532 7.10795 47.2248 7.10795C48.5202 7.10795 49.7518 7.45312 50.9194 8.14347C52.0955 8.83381 53.0501 9.92045 53.783 11.4034C54.5245 12.8864 54.8952 14.8125 54.8952 17.1818C54.8952 19.4489 54.5415 21.3281 53.8342 22.8196C53.1353 24.3111 52.1978 25.4233 51.0217 26.1562C49.854 26.8892 48.5714 27.2557 47.1737 27.2557C46.2532 27.2557 45.4308 27.1065 44.7063 26.8082C43.9904 26.5014 43.3768 26.0881 42.8654 25.5682C42.3626 25.0398 41.9748 24.4432 41.7021 23.7784H41.5487V27H34.543ZM41.4464 17.1818C41.4464 18.1364 41.57 18.9631 41.8171 19.6619C42.0728 20.3523 42.4308 20.8892 42.891 21.2727C43.3597 21.6477 43.918 21.8352 44.5657 21.8352C45.2134 21.8352 45.7631 21.652 46.2148 21.2855C46.6751 20.9105 47.0245 20.3778 47.2631 19.6875C47.5103 18.9886 47.6339 18.1534 47.6339 17.1818C47.6339 16.2102 47.5103 15.3793 47.2631 14.6889C47.0245 13.9901 46.6751 13.4574 46.2148 13.0909C45.7631 12.7159 45.2134 12.5284 44.5657 12.5284C43.918 12.5284 43.3597 12.7159 42.891 13.0909C42.4308 13.4574 42.0728 13.9901 41.8171 14.6889C41.57 15.3793 41.4464 16.2102 41.4464 17.1818ZM57.8484 27V7.36364H64.7006V11.0966H64.9052C65.2631 9.71591 65.8299 8.70597 66.6055 8.06676C67.3896 7.42756 68.3058 7.10795 69.354 7.10795C69.6609 7.10795 69.9634 7.13352 70.2617 7.18466C70.5685 7.22727 70.8626 7.29119 71.1438 7.37642V13.3977C70.7944 13.2784 70.364 13.1889 69.8526 13.1293C69.3413 13.0696 68.9023 13.0398 68.5359 13.0398C67.8455 13.0398 67.2234 13.1974 66.6694 13.5128C66.1239 13.8196 65.6935 14.2543 65.3782 14.8168C65.0629 15.3707 64.9052 16.0227 64.9052 16.7727V27H57.8484ZM77.2514 27L72.3423 7.36364H79.3991L81.6491 19.3295H81.8026L84.3082 7.36364H91.1605L93.7685 19.2273H93.9219L96.0696 7.36364H103.126L98.2173 27H90.598L87.8366 16.4659H87.6321L84.8707 27H77.2514Z" fill="black"/>
</svg>
