<svg width="24" height="24" viewBox="0 0 24 24" fill="none" xmlns="http://www.w3.org/2000/svg">
<g clip-path="url(#clip0_124_175)">
<path d="M11 1C11 0.447715 11.4477 0 12 0C12.5523 0 13 0.447715 13 1V3C13 3.55228 12.5523 4 12 4C11.4477 4 11 3.55228 11 3V1Z" fill="#1E1D1F"/>
<path fill-rule="evenodd" clip-rule="evenodd" d="M18 12C18 15.3137 15.3137 18 12 18C8.68629 18 6 15.3137 6 12C6 8.68629 8.68629 6 12 6C15.3137 6 18 8.68629 18 12ZM8.06167 12C8.06167 14.1751 9.82492 15.9383 12 15.9383C14.1751 15.9383 15.9383 14.1751 15.9383 12C15.9383 9.82492 14.1751 8.06167 12 8.06167C9.82492 8.06167 8.06167 9.82492 8.06167 12Z" fill="#1E1D1F"/>
<path d="M20.4854 3.51482C20.0948 3.12429 19.4617 3.12429 19.0712 3.51482L17.6569 4.92903C17.2664 5.31956 17.2664 5.95272 17.6569 6.34325C18.0475 6.73377 18.6806 6.73377 19.0712 6.34325L20.4854 4.92903C20.8759 4.53851 20.8759 3.90534 20.4854 3.51482Z" fill="#1E1D1F"/>
<path d="M1 13C0.447715 13 0 12.5523 0 12C0 11.4477 0.447715 11 1 11H3C3.55228 11 4 11.4477 4 12C4 12.5523 3.55228 13 3 13H1Z" fill="#1E1D1F"/>
<path d="M3.51481 3.51482C3.12429 3.90534 3.12429 4.53851 3.51481 4.92903L4.92903 6.34325C5.31955 6.73377 5.95272 6.73377 6.34324 6.34325C6.73377 5.95272 6.73377 5.31956 6.34324 4.92903L4.92903 3.51482C4.5385 3.12429 3.90534 3.12429 3.51481 3.51482Z" fill="#1E1D1F"/>
<path d="M11 21C11 20.4477 11.4477 20 12 20C12.5523 20 13 20.4477 13 21V23C13 23.5523 12.5523 24 12 24C11.4477 24 11 23.5523 11 23V21Z" fill="#1E1D1F"/>
<path d="M6.34324 17.657C5.95272 17.2664 5.31955 17.2664 4.92903 17.657L3.51482 19.0712C3.12429 19.4617 3.12429 20.0949 3.51482 20.4854C3.90534 20.8759 4.53851 20.8759 4.92903 20.4854L6.34324 19.0712C6.73377 18.6806 6.73377 18.0475 6.34324 17.657Z" fill="#1E1D1F"/>
<path d="M21 13C20.4477 13 20 12.5523 20 12C20 11.4477 20.4477 11 21 11H23C23.5523 11 24 11.4477 24 12C24 12.5523 23.5523 13 23 13H21Z" fill="#1E1D1F"/>
<path d="M17.6569 17.657C17.2664 18.0475 17.2664 18.6806 17.6569 19.0712L19.0712 20.4854C19.4617 20.8759 20.0948 20.8759 20.4854 20.4854C20.8759 20.0949 20.8759 19.4617 20.4854 19.0712L19.0712 17.657C18.6806 17.2664 18.0475 17.2664 17.6569 17.657Z" fill="#1E1D1F"/>
</g>
<defs>
<clipPath id="clip0_124_175">
<rect width="24" height="24" fill="white"/>
</clipPath>
</defs>
</svg>
