<svg width="36" height="36" viewBox="0 0 36 36" fill="none" xmlns="http://www.w3.org/2000/svg">
<g clip-path="url(#clip0_124_171)">
<path d="M17 7C17 6.44771 17.4477 6 18 6C18.5523 6 19 6.44771 19 7V9C19 9.55228 18.5523 10 18 10C17.4477 10 17 9.55228 17 9V7Z" fill="#1E1D1F"/>
<path fill-rule="evenodd" clip-rule="evenodd" d="M24 18C24 21.3137 21.3137 24 18 24C14.6863 24 12 21.3137 12 18C12 14.6863 14.6863 12 18 12C21.3137 12 24 14.6863 24 18ZM14.0617 18C14.0617 20.1751 15.8249 21.9383 18 21.9383C20.1751 21.9383 21.9383 20.1751 21.9383 18C21.9383 15.8249 20.1751 14.0617 18 14.0617C15.8249 14.0617 14.0617 15.8249 14.0617 18Z" fill="#1E1D1F"/>
<path d="M26.4854 9.51482C26.0948 9.12429 25.4617 9.12429 25.0712 9.51482L23.6569 10.929C23.2664 11.3196 23.2664 11.9527 23.6569 12.3433C24.0475 12.7338 24.6806 12.7338 25.0712 12.3433L26.4854 10.929C26.8759 10.5385 26.8759 9.90534 26.4854 9.51482Z" fill="#1E1D1F"/>
<path d="M7 19C6.44771 19 6 18.5523 6 18C6 17.4477 6.44771 17 7 17H9C9.55228 17 10 17.4477 10 18C10 18.5523 9.55228 19 9 19H7Z" fill="#1E1D1F"/>
<path d="M9.51481 9.51482C9.12429 9.90534 9.12429 10.5385 9.51481 10.929L10.929 12.3433C11.3196 12.7338 11.9527 12.7338 12.3432 12.3433C12.7338 11.9527 12.7338 11.3196 12.3432 10.929L10.929 9.51482C10.5385 9.12429 9.90534 9.12429 9.51481 9.51482Z" fill="#1E1D1F"/>
<path d="M17 27C17 26.4477 17.4477 26 18 26C18.5523 26 19 26.4477 19 27V29C19 29.5523 18.5523 30 18 30C17.4477 30 17 29.5523 17 29V27Z" fill="#1E1D1F"/>
<path d="M12.3432 23.657C11.9527 23.2664 11.3196 23.2664 10.929 23.657L9.51482 25.0712C9.12429 25.4617 9.12429 26.0949 9.51482 26.4854C9.90534 26.8759 10.5385 26.8759 10.929 26.4854L12.3432 25.0712C12.7338 24.6806 12.7338 24.0475 12.3432 23.657Z" fill="#1E1D1F"/>
<path d="M27 19C26.4477 19 26 18.5523 26 18C26 17.4477 26.4477 17 27 17H29C29.5523 17 30 17.4477 30 18C30 18.5523 29.5523 19 29 19H27Z" fill="#1E1D1F"/>
<path d="M23.6569 23.657C23.2664 24.0475 23.2664 24.6806 23.6569 25.0712L25.0712 26.4854C25.4617 26.8759 26.0948 26.8759 26.4854 26.4854C26.8759 26.0949 26.8759 25.4617 26.4854 25.0712L25.0712 23.657C24.6806 23.2664 24.0475 23.2664 23.6569 23.657Z" fill="#1E1D1F"/>
</g>
<defs>
<clipPath id="clip0_124_171">
<rect width="24" height="24" fill="white" transform="translate(6 6)"/>
</clipPath>
</defs>
</svg>
